<?xml version="1.0" encoding="UTF-8"?>
<svg width="122px" height="48px" viewBox="0 0 122 48" version="1.1" xmlns="http://www.w3.org/2000/svg" xmlns:xlink="http://www.w3.org/1999/xlink">
    <title>Logo/Negative/Logo</title>
    <g id="Page-1" stroke="none" stroke-width="1" fill="none" fill-rule="evenodd">
        <g id="Login" transform="translate(-223.000000, -64.000000)" fill="#FFFFFF">
            <g id="Logo" transform="translate(222.600000, 64.000000)">
                <path d="M98.4521739,48 C111.678193,48 122.4,37.254834 122.4,24 C122.4,10.745166 111.678193,0 98.4521739,0 C85.2261548,0 74.5043478,10.745166 74.5043478,24 C74.5043478,37.254834 85.2261548,48 98.4521739,48 Z" id="Halo" opacity="0.2"></path>
                <path d="M8.31895457,31.9754693 C11.6645546,31.9754693 13.5980507,30.5104026 15.0318792,28.5205359 L11.8600766,26.2464026 C10.9476403,27.3616026 10.0134792,28.1050693 8.42757795,28.1050693 C6.29855977,28.1050693 4.79955717,26.3120026 4.79955717,24.0160026 L4.79955717,23.9722693 C4.79955717,21.7418693 6.29855977,19.9050693 8.42757795,19.9050693 C9.88313119,19.9050693 10.8824663,20.6266693 11.7514533,21.6981359 L14.9232559,19.2272026 C13.576326,17.3685359 11.5776559,16.0565359 8.4710273,16.0565359 C3.86539613,16.0565359 0.476346779,19.5552026 0.476346779,24.0160026 L0.476346779,24.0597359 C0.476346779,28.6298693 3.97401951,31.9754693 8.31895457,31.9754693 L8.31895457,31.9754693 Z M22.2608973,31.6693359 L26.6710064,31.6693359 L27.7572402,28.9141359 L33.6446272,28.9141359 L34.730861,31.6693359 L39.2495934,31.6693359 L32.7756402,16.2533359 L28.7131259,16.2533359 L22.2608973,31.6693359 Z M28.9955467,25.6122693 L30.711796,21.2826693 L32.4063207,25.6122693 L28.9955467,25.6122693 Z M47.4562219,31.6693359 L51.6708089,31.6693359 L51.6708089,27.0336026 L53.539131,27.0336026 L56.6023102,31.6693359 L61.4469128,31.6693359 L57.818892,26.3338693 C59.7089388,25.5248026 60.9472453,23.9722693 60.9472453,21.6106693 L60.9472453,21.5669359 C60.9472453,20.0581359 60.4910271,18.8992026 59.6003154,18.0026693 C58.5792557,16.9749359 56.9716297,16.3626693 54.6470894,16.3626693 L47.4562219,16.3626693 L47.4562219,31.6693359 Z M51.6708089,23.7098693 L51.6708089,20.0144026 L54.4515674,20.0144026 C55.8419466,20.0144026 56.7326583,20.6266693 56.7326583,21.8512026 L56.7326583,21.8949359 C56.7326583,23.0101359 55.8853959,23.7098693 54.473292,23.7098693 L51.6708089,23.7098693 Z M98.4521739,16 C102.860847,16 106.434783,19.581722 106.434783,24 C106.434783,28.418278 102.860847,32 98.4521739,32 C94.0435009,32 90.4695652,28.418278 90.4695652,24 C90.4695652,19.581722 94.0435009,16 98.4521739,16 Z M82.2973023,16.3626693 L82.2973023,20.0800026 L77.7351205,20.0800026 L77.7351205,31.6693359 L73.5205335,31.6693359 L73.5205335,20.0800026 L68.9800763,20.0800026 L68.9800763,16.3626693 L82.2973023,16.3626693 Z"></path>
            </g>
        </g>
    </g>
</svg>