<?xml version="1.0" standalone="no"?>
<!DOCTYPE svg PUBLIC "-//W3C//DTD SVG 20010904//EN"
 "http://www.w3.org/TR/2001/REC-SVG-20010904/DTD/svg10.dtd">
<svg version="1.0" xmlns="http://www.w3.org/2000/svg"
 width="700.000000pt" height="700.000000pt" viewBox="0 0 700.000000 700.000000"
 preserveAspectRatio="xMidYMid meet">
<metadata>
Created by potrace 1.11, written by Peter Selinger 2001-2013
</metadata>
<g transform="translate(0.000000,700.000000) scale(0.100000,-0.100000)"
fill="#000000" stroke="none">
<path d="M3370 4659 c-76 -9 -119 -17 -159 -28 -19 -6 -38 -8 -42 -5 -5 3 -9
1 -9 -3 0 -5 -21 -15 -47 -22 -27 -8 -53 -18 -59 -23 -7 -5 -22 -11 -33 -13
-12 -2 -34 -13 -50 -24 -16 -12 -32 -21 -35 -21 -6 0 -108 -61 -116 -69 -3 -4
-27 -24 -55 -46 -47 -37 -127 -116 -168 -165 -108 -129 -209 -340 -241 -505
-42 -218 -17 -489 61 -667 12 -25 19 -48 17 -51 -3 -2 2 -10 11 -17 8 -7 15
-19 15 -27 0 -7 8 -26 18 -41 11 -15 35 -52 54 -82 37 -58 84 -114 154 -183
49 -49 114 -107 121 -107 2 0 19 -11 36 -24 18 -13 57 -37 88 -53 30 -16 62
-34 70 -39 32 -20 150 -59 274 -90 11 -2 50 -7 88 -11 37 -3 67 -10 67 -15 0
-5 5 -6 12 -2 7 4 46 9 88 10 97 2 163 10 245 29 103 24 275 99 364 159 29 20
54 36 56 36 12 0 162 146 212 206 44 53 131 191 145 231 7 18 15 33 18 33 4 0
7 6 8 13 0 6 8 32 17 57 23 61 45 138 51 180 16 106 20 154 18 240 -2 119 -9
175 -35 270 -28 106 -25 98 -67 190 -14 30 -26 58 -26 61 -2 15 -113 177 -146
213 -94 106 -248 236 -277 236 -7 0 -13 3 -13 8 0 9 -86 53 -170 87 -71 28
-186 59 -265 70 -68 10 -228 13 -295 4z"/>
</g>
</svg>
