<?xml version="1.0" encoding="UTF-8"?>
<svg width="62px" height="24px" viewBox="0 0 62 24" version="1.1" xmlns="http://www.w3.org/2000/svg" xmlns:xlink="http://www.w3.org/1999/xlink">
    <title>CARTO Components/Logo/Positive/Logo</title>
    <defs>
        <filter id="filter-1">
            <feColorMatrix in="SourceGraphic" type="matrix" values="0 0 0 0 0.172549 0 0 0 0 0.188235 0 0 0 0 0.196078 0 0 0 0.600000 0"></feColorMatrix>
        </filter>
    </defs>
    <g id="Page-1" stroke="none" stroke-width="1" fill="none" fill-rule="evenodd">
        <g id="CARTO-Components/Logo/Positive/Logo" filter="url(#filter-1)">
            <g id="Logo" fill="#162945">
                <path d="M49.226087,24 C55.8390965,24 61.2,18.627417 61.2,12 C61.2,5.372583 55.8390965,0 49.226087,0 C42.6130774,0 37.2521739,5.372583 37.2521739,12 C37.2521739,18.627417 42.6130774,24 49.226087,24 Z" id="Halo" fill-opacity="0.1"></path>
                <path d="M4.15947729,15.9877346 C5.83227729,15.9877346 6.79902534,15.2552013 7.51593962,14.260268 L5.93003832,13.1232013 C5.47382014,13.6808013 5.00673962,14.0525346 4.21378897,14.0525346 C3.14927988,14.0525346 2.39977858,13.1560013 2.39977858,12.0080013 L2.39977858,11.9861346 C2.39977858,10.8709346 3.14927988,9.95253464 4.21378897,9.95253464 C4.9415656,9.95253464 5.44123313,10.3133346 5.87572664,10.849068 L7.46162793,9.6136013 C6.788163,8.68426797 5.78882793,8.02826797 4.23551365,8.02826797 C1.93269806,8.02826797 0.238173389,9.7776013 0.238173389,12.0080013 L0.238173389,12.029868 C0.238173389,14.3149346 1.98700975,15.9877346 4.15947729,15.9877346 L4.15947729,15.9877346 Z M11.1304487,15.834668 L13.3355032,15.834668 L13.8786201,14.457068 L16.8223136,14.457068 L17.3654305,15.834668 L19.6247967,15.834668 L16.3878201,8.12666797 L14.3565629,8.12666797 L11.1304487,15.834668 Z M14.4977733,12.8061346 L15.355898,10.6413346 L16.2031604,12.8061346 L14.4977733,12.8061346 Z M23.728111,15.834668 L25.8354045,15.834668 L25.8354045,13.5168013 L26.7695655,13.5168013 L28.3011551,15.834668 L30.7234564,15.834668 L28.909446,13.1669346 C29.8544694,12.7624013 30.4736226,11.9861346 30.4736226,10.8053346 L30.4736226,10.783468 C30.4736226,10.029068 30.2455135,9.4496013 29.8001577,9.00133464 C29.2896278,8.48746797 28.4858148,8.18133464 27.3235447,8.18133464 L23.728111,8.18133464 L23.728111,15.834668 Z M25.8354045,11.8549346 L25.8354045,10.0072013 L27.2257837,10.0072013 C27.9209733,10.0072013 28.3663291,10.3133346 28.3663291,10.9256013 L28.3663291,10.947468 C28.3663291,11.505068 27.942698,11.8549346 27.236646,11.8549346 L25.8354045,11.8549346 Z M49.226087,8 C51.4304235,8 53.2173913,9.790861 53.2173913,12 C53.2173913,14.209139 51.4304235,16 49.226087,16 C47.0217504,16 45.2347826,14.209139 45.2347826,12 C45.2347826,9.790861 47.0217504,8 49.226087,8 Z M41.1486512,8.18133464 L41.1486512,10.0400013 L38.8675603,10.0400013 L38.8675603,15.834668 L36.7602667,15.834668 L36.7602667,10.0400013 L34.4900382,10.0400013 L34.4900382,8.18133464 L41.1486512,8.18133464 Z"></path>
            </g>
        </g>
    </g>
</svg>