<svg xmlns="http://www.w3.org/2000/svg" width="24" height="24" viewBox="0 0 24 24">
    <g fill="none" fill-rule="evenodd">
        <g fill="#2C3032">
            <g>
                <g>
                    <path d="M15 5c2.21 0 4 1.79 4 4v6c0 2.21-1.79 4-4 4H9c-2.21 0-4-1.79-4-4V9c0-2.21 1.79-4 4-4h6zm0 2H9c-1.054 0-1.918.816-1.995 1.85L7 9v6c0 1.054.816 1.918 1.85 1.995L9 17h6c1.054 0 1.918-.816 1.995-1.85L17 15V9c0-1.054-.816-1.918-1.85-1.995L15 7zm0 4v2H9v-2h6z" transform="translate(-113 -443) translate(97 427) translate(16 16)"/>
                </g>
            </g>
        </g>
    </g>
</svg>
